<mxfile host="app.diagrams.net" modified="2024-01-23T16:29:15.727Z" agent="Mozilla/5.0 (Macintosh; Intel Mac OS X 10_15_7) AppleWebKit/605.1.15 (KHTML, like Gecko) Version/17.1 Safari/605.1.15" version="22.1.22" etag="lx2d8VmIUlwtXTWx3lS0" type="github">
  <diagram name="Page-1" id="uUNg7oHb0JhweL4nGDkf">
    <mxGraphModel>
      <root>
        <mxCell id="0" />
        <mxCell id="1" parent="0" />
      </root>
    </mxGraphModel>
  </diagram>
</mxfile>
